<svg width="256" height="256" viewBox="0 0 256 256" fill="none" xmlns="http://www.w3.org/2000/svg">
<path fill-rule="evenodd" clip-rule="evenodd" d="M128 5.33331C117.653 5.33331 109.333 13.6533 109.333 24C109.333 30.2933 112.533 35.9466 117.333 39.2533V54.1866C107.733 55.5733 98.7733 58.6666 90.6666 63.36L78.8267 46.4C80.8533 40.8533 80.32 34.4533 76.6933 29.3333C72.96 24.1066 67.2 21.3333 61.3333 21.3333C57.6 21.3333 53.8667 22.4 50.6667 24.7466C42.24 30.6133 40.1067 42.24 46.08 50.6666C49.7067 55.8933 55.4667 58.6666 61.3333 58.6666L73.92 76.5866C69.3333 81.1733 65.7067 86.2933 62.6133 91.9466C60.48 91.0933 58.24 90.6666 56 90.6666C51.2 90.6666 46.4 92.48 42.6667 96C35.52 103.467 35.52 115.2 42.6667 122.667C45.76 125.547 49.4933 127.147 53.3333 128C53.3333 133.76 54.08 139.307 55.2533 144.64L41.28 148.373C37.9733 145.6 33.7067 144 29.3333 144C27.7333 144 26.0267 144 24.4267 144.64C14.5067 147.307 8.62932 157.547 11.3067 167.573C13.5467 176 21.3333 181.333 29.3333 181.333C30.9333 181.333 32.5333 181.333 34.24 180.693C40.32 178.987 44.9067 174.507 46.8267 168.96L62.9333 164.587C67.7333 173.013 74.1333 180.48 81.6 186.667L69.8667 208C64 208.853 58.6667 212.16 55.5733 217.813C50.6667 226.88 54.08 238.187 63.1467 243.093C65.92 244.587 69.0133 245.333 72 245.333C78.6133 245.333 85.0133 241.813 88.4267 235.52C91.4133 229.973 91.3067 223.573 88.64 218.347L99.3854 198.563L100.704 195.896L117.528 155.247C117.751 154.712 117.528 154.03 117.035 153.728L114.993 152.478C114.615 152.248 114.103 151.852 113.701 151.489C106.335 146.772 101.447 138.521 101.447 129.125C101.447 114.461 113.336 102.575 128 102.575C142.664 102.575 154.551 114.461 154.551 129.125C154.551 138.521 149.665 146.772 142.297 151.489C141.899 151.852 141.385 152.248 141.009 152.478L138.967 153.728C138.476 154.03 138.252 154.712 138.473 155.247L155.25 197.25L158.406 196.165C158.404 196.163 158.402 196.162 158.4 196.16C163.413 193.92 168.213 191.04 172.693 187.733L197.653 212.693C196.587 218.667 198.293 224.747 202.667 229.333C206.4 232.853 211.2 234.667 216 234.667C220.8 234.667 225.6 232.853 229.333 229.333C236.48 221.867 236.48 210.133 229.333 202.667C225.6 199.147 220.8 197.333 216 197.333C214.933 197.333 213.867 197.333 212.693 197.653L187.733 172.693C192.96 165.76 197.013 157.867 199.573 149.333H211.413C214.72 154.133 220.373 157.333 226.667 157.333C237.013 157.333 245.333 149.013 245.333 138.667C245.333 128.32 237.013 120 226.667 120C220.373 120 214.72 123.2 211.413 128H202.667C202.667 111.253 197.333 96 187.733 83.3066L202.027 69.0133C203.2 69.3333 204.267 69.3333 205.333 69.3333C210.133 69.3333 214.933 67.52 218.667 64C225.813 56.64 225.813 44.8 218.667 37.3333C214.933 33.8133 210.133 32 205.333 32C200.533 32 195.733 33.8133 192 37.3333C187.627 41.92 185.92 48 186.987 53.9733L172.693 68.2666C162.88 60.9066 151.36 56 138.667 54.1866V39.2533C143.467 35.9466 146.667 30.2933 146.667 24C146.667 13.6533 138.347 5.33331 128 5.33331Z" fill="black" fill-opacity="0.87"/>
</svg>
